<svg width="41" height="39" viewBox="0 0 41 39" fill="none" xmlns="http://www.w3.org/2000/svg">
<g clip-path="url(#clip0_7_188)">
<path d="M15.1814 34.6667C16.5966 34.6667 17.7439 33.5754 17.7439 32.2292C17.7439 30.883 16.5966 29.7917 15.1814 29.7917C13.7662 29.7917 12.6189 30.883 12.6189 32.2292C12.6189 33.5754 13.7662 34.6667 15.1814 34.6667Z" fill="#2B4C59"/>
<path d="M30.75 34.6667C32.1652 34.6667 33.3125 33.5754 33.3125 32.2292C33.3125 30.883 32.1652 29.7917 30.75 29.7917C29.3348 29.7917 28.1875 30.883 28.1875 32.2292C28.1875 33.5754 29.3348 34.6667 30.75 34.6667Z" fill="#2B4C59"/>
<path d="M25.7047 7.58335C25.6529 7.22433 25.6262 6.86242 25.625 6.50002C25.6262 6.13762 25.6529 5.77571 25.7047 5.41669H13.0858L13.8261 7.58335H25.7047Z" fill="#2B4C59"/>
<path d="M34.1667 14.625H33.6883L32.2647 20.5833H15.1814L9.97668 4.90751C9.92038 4.74117 9.82262 4.59026 9.69173 4.46764C9.56085 4.34502 9.40072 4.25435 9.22501 4.20334L4.55557 2.83834C4.41199 2.79637 4.26113 2.78171 4.11159 2.79521C3.96206 2.8087 3.81679 2.85007 3.68406 2.91697C3.41602 3.05207 3.21537 3.28293 3.12626 3.55876C3.03716 3.83458 3.06689 4.13278 3.20893 4.38775C3.35096 4.64272 3.59366 4.83358 3.88363 4.91834L7.97224 6.11001L13.1997 21.8183L11.332 23.27L11.1839 23.4108C10.7219 23.9173 10.46 24.5611 10.4434 25.2315C10.4268 25.9018 10.6564 26.5567 11.0928 27.0833C11.4032 27.4424 11.7977 27.7274 12.2446 27.9155C12.6915 28.1036 13.1785 28.1896 13.6667 28.1667H32.6747C32.9768 28.1667 33.2665 28.0525 33.4801 27.8494C33.6936 27.6462 33.8136 27.3707 33.8136 27.0833C33.8136 26.796 33.6936 26.5205 33.4801 26.3173C33.2665 26.1141 32.9768 26 32.6747 26H13.4845C13.3533 25.9957 13.2255 25.9594 13.1135 25.8944C13.0014 25.8295 12.9089 25.7381 12.8447 25.6292C12.7806 25.5203 12.7471 25.3975 12.7475 25.2727C12.7478 25.1479 12.782 25.0253 12.8467 24.9167L15.5914 22.75H33.1758C33.4391 22.7561 33.6965 22.6753 33.9041 22.5212C34.1118 22.3671 34.2569 22.1494 34.3147 21.905L36.1028 14.4192C35.4678 14.5577 34.8182 14.6268 34.1667 14.625Z" fill="#2B4C59"/>
<path d="M34.1667 11.9166C37.3116 11.9166 39.8611 9.49152 39.8611 6.49998C39.8611 3.50844 37.3116 1.08331 34.1667 1.08331C31.0217 1.08331 28.4722 3.50844 28.4722 6.49998C28.4722 9.49152 31.0217 11.9166 34.1667 11.9166Z" fill="#C64949"/>
<path d="M32.896 9V8.424H33.928L33.92 4.04H34.56V8.424H35.456V9H32.896ZM32.824 5L32.68 4.44L33.92 4.04V4.68L32.824 5Z" fill="white"/>
</g>
<defs>
<clipPath id="clip0_7_188">
<rect width="41" height="39" fill="white"/>
</clipPath>
</defs>
</svg>
