<svg width="29" height="27" viewBox="0 0 29 27" fill="none" xmlns="http://www.w3.org/2000/svg">
<path d="M22.5402 19.7944L26.0801 23.0884C26.2451 23.2475 26.3365 23.4607 26.3344 23.6819C26.3324 23.9031 26.237 24.1147 26.069 24.2712C25.901 24.4276 25.6737 24.5163 25.4361 24.5183C25.1985 24.5202 24.9695 24.4351 24.7986 24.2815L21.2588 20.9858C18.9456 22.831 15.9547 23.7703 12.9137 23.6066C9.87272 23.4429 7.01799 22.189 4.94857 20.108C2.87915 18.0269 1.75591 15.2805 1.81453 12.445C1.87316 9.60955 3.10909 6.90541 5.263 4.90005C7.4169 2.89469 10.3213 1.74399 13.3669 1.68941C16.4124 1.63483 19.3622 2.68061 21.5974 4.60731C23.8326 6.53401 25.1794 9.19186 25.3552 12.0231C25.531 14.8544 24.5221 17.639 22.5402 19.7927V19.7944ZM13.5937 21.9375C16.2376 21.9375 18.7732 20.9597 20.6427 19.2191C22.5122 17.4785 23.5625 15.1178 23.5625 12.6563C23.5625 10.1947 22.5122 7.834 20.6427 6.09343C18.7732 4.35286 16.2376 3.37501 13.5937 3.37501C10.9499 3.37501 8.41428 4.35286 6.54477 6.09343C4.67527 7.834 3.62499 10.1947 3.62499 12.6563C3.62499 15.1178 4.67527 17.4785 6.54477 19.2191C8.41428 20.9597 10.9499 21.9375 13.5937 21.9375Z" fill="#988080"/>
</svg>
